<?xml version="1.0" standalone="no"?><!DOCTYPE svg PUBLIC "-//W3C//DTD SVG 1.1//EN" "http://www.w3.org/Graphics/SVG/1.1/DTD/svg11.dtd"><svg t="1778253940802" class="icon" viewBox="0 0 1024 1024" version="1.1" xmlns="http://www.w3.org/2000/svg" p-id="13702" xmlns:xlink="http://www.w3.org/1999/xlink" width="200" height="200"><path d="M475.988257 0.703604C493.322506 0.63964 510.656756 0.63964 527.991005 0.575676c8.827035 1.27928 17.65407 2.750453 26.481104 3.901805 73.110875 9.722531 138.034356 38.570304 194.57855 85.711787 55.968518 46.693735 95.818102 105.028921 118.333437 174.429883 16.694609 51.491036 24.306328 104.197389 16.182897 158.438878-8.123431 54.177525-26.928853 104.964957-49.508152 154.281217-61.917172 135.539759-142.192017 259.50203-239.2894 372.46249-24.434256 28.400025-49.764008 56.416266-83.792867 74.262227-4.029733 0-7.995503 0-11.961272 0.063964-10.426135-6.972078-21.875695-12.792804-31.086514-21.108127-17.781998-15.991005-35.563995-32.365794-51.171216-50.467612-109.634331-127.032544-200.78306-265.898432-263.915548-422.034606-25.585608-63.32438-40.425261-128.439753-29.935161-197.776751 10.937847-72.215379 38.250484-136.946967 84.816291-192.915485 54.689237-65.691049 124.026235-108.930726 207.499282-128.567681C435.243176 6.52433 455.711662 4.157661 475.988257 0.703604zM758.965082 384.807546c0.831532-139.953276-113.855956-255.152477-255.152477-256.239865-139.889312-1.087388-255.152477 113.472172-256.495721 254.896621-1.343244 140.145168 114.23974 256.175901 255.664189 256.751577C643.062277 640.791555 758.13355 526.040102 758.965082 384.807546z" p-id="13703" fill="#1296db"></path></svg>