<?xml version="1.0" standalone="no"?><!DOCTYPE svg PUBLIC "-//W3C//DTD SVG 1.1//EN" "http://www.w3.org/Graphics/SVG/1.1/DTD/svg11.dtd"><svg t="1778253963263" class="icon" viewBox="0 0 1024 1024" version="1.1" xmlns="http://www.w3.org/2000/svg" p-id="14880" xmlns:xlink="http://www.w3.org/1999/xlink" width="200" height="200"><path d="M853.333333 955.733333H170.666667c-37.6832 0-68.266667-33.109333-68.266667-73.9328V142.199467C102.4 101.376 132.983467 68.266667 170.666667 68.266667h238.933333c18.8416 0 34.133333 16.5888 34.133333 37.000533 0 20.411733-15.291733 36.932267-34.133333 36.932267H170.666667v739.601066h682.666666V622.933333c0-20.411733 15.291733-37.000533 34.133334-37.000533s34.133333 16.5888 34.133333 37.000533v258.8672c0 40.823467-30.583467 73.9328-68.266667 73.9328z" fill="#1296db" p-id="14881"></path><path d="M975.121067 60.416l0.6144 322.7648c0 12.424533-4.5056 23.210667-13.653334 32.290133a44.373333 44.373333 0 0 1-64.512-0.136533 44.2368 44.2368 0 0 1-13.653333-32.290133l-0.136533-212.5824-322.901334 322.901333a43.895467 43.895467 0 0 1-32.221866 13.312 44.168533 44.168533 0 0 1-32.290134-13.448533 44.168533 44.168533 0 0 1-13.448533-32.290134c0-12.629333 4.437333-23.415467 13.312-32.290133l322.901333-322.901333-212.5824-0.068267a45.8752 45.8752 0 0 1-32.290133-13.653333 44.168533 44.168533 0 0 1-13.448533-32.3584c0-12.629333 4.437333-23.415467 13.312-32.290134a45.4656 45.4656 0 0 1 32.221866-13.585066l322.833067 0.546133c12.424533 0 23.210667 4.642133 32.290133 13.653333 9.079467 9.216 13.653333 20.002133 13.653334 32.426667z" fill="#1296db" p-id="14882"></path></svg>