<?xml version="1.0" standalone="no"?><!DOCTYPE svg PUBLIC "-//W3C//DTD SVG 1.1//EN" "http://www.w3.org/Graphics/SVG/1.1/DTD/svg11.dtd"><svg t="1778405087740" class="icon" viewBox="0 0 1024 1024" version="1.1" xmlns="http://www.w3.org/2000/svg" p-id="13313" xmlns:xlink="http://www.w3.org/1999/xlink" width="200" height="200"><path d="M730.16 411.44H281.84a31.56 31.56 0 1 1 0-63.18h448.32a31.56 31.56 0 1 1 0 63.18m0 180.66H281.84a31.56 31.56 0 1 1 0-63.18h448.32a31.56 31.56 0 1 1 0 63.18m0 180.6H281.84a31.56 31.56 0 1 1 0-63.18h448.32a31.56 31.56 0 1 1 0 63.24M608.78 104.78H403.16a31.56 31.56 0 1 1 0-63.18h205.62a31.56 31.56 0 1 1 0 63.18" p-id="13314" fill="#1296db"></path><path d="M160.7 100.64a35.52 35.52 0 0 0-35.52 35.46v756.12c0 19.62 15.9 35.52 35.52 35.52h690.6a35.52 35.52 0 0 0 35.46-35.52V136.1a35.52 35.52 0 0 0-35.46-35.46h-92.16a119.88 119.88 0 0 1-119.16 108.78H372.02A119.76 119.76 0 0 1 252.8 100.64H160.7z m690.6 890.28H160.7A98.76 98.76 0 0 1 62 892.22V136.1C62 81.68 106.22 37.4 160.7 37.4h154.8v52.38c0 31.2 25.32 56.4 56.52 56.4h267.96c31.2 0 56.46-25.2 56.46-56.4V37.4h154.8c54.54 0 98.76 44.28 98.76 98.7v756.12c0 54.48-44.22 98.7-98.7 98.7z" p-id="13315" fill="#1296db"></path></svg>