<?xml version="1.0" standalone="no"?><!DOCTYPE svg PUBLIC "-//W3C//DTD SVG 1.1//EN" "http://www.w3.org/Graphics/SVG/1.1/DTD/svg11.dtd"><svg t="1778405158896" class="icon" viewBox="0 0 1024 1024" version="1.1" xmlns="http://www.w3.org/2000/svg" p-id="14619" xmlns:xlink="http://www.w3.org/1999/xlink" width="200" height="200"><path d="M489.557333 709.077333a208.341333 208.341333 0 1 1 208.384 208.256 208.384 208.384 0 0 1-208.384-208.256z m64 0a144.298667 144.298667 0 1 0 144.426667-144.341333 144.469333 144.469333 0 0 0-144.469333 144.341333z m-385.962666 186.965334a49.664 49.664 0 0 1-49.536-49.664V156.373333a49.578667 49.578667 0 0 1 49.536-49.664h562.133333a49.664 49.664 0 0 1 49.621333 49.664V426.666667h-64V170.666667h-533.333333v661.333333h298.666667V896z m518.570666-123.989334a33.109333 33.109333 0 0 1-32.938666-33.109333V626.346667a32.981333 32.981333 0 0 1 65.962666 0v79.616h46.634667a33.024 33.024 0 0 1 0 66.090666z m-397.44-165.12a32 32 0 1 1 0-64h106.666667a32 32 0 1 1 0 64z m0-143.829333a32.042667 32.042667 0 1 1 0-64h298.666667a32.042667 32.042667 0 0 1 0 64z m0-138.666667a32 32 0 1 1 0-64h298.666667a32 32 0 1 1 0 64z" p-id="14620" fill="#1296db"></path></svg>