<?xml version="1.0" standalone="no"?><!DOCTYPE svg PUBLIC "-//W3C//DTD SVG 1.1//EN" "http://www.w3.org/Graphics/SVG/1.1/DTD/svg11.dtd"><svg t="1778253995832" class="icon" viewBox="0 0 1024 1024" version="1.1" xmlns="http://www.w3.org/2000/svg" p-id="15983" xmlns:xlink="http://www.w3.org/1999/xlink" width="200" height="200"><path d="M877 562.44V195.29C877 123.45 817.76 65 744.94 65H206c-66.17 0-120 53.11-120 118.39v603.37c0 71.84 59.24 130.29 132.06 130.29H559.8c40.46 29.88 89.08 46.02 140.19 46.02 63.78 0 123.68-25.11 168.67-70.7C913.38 847.07 938 786.9 938 722.97c0-59.85-21.58-116.38-61-160.53zM166 786.76V183.39c0-21.76 17.94-39.46 40-39.46h538.94c28.71 0 52.06 23.04 52.06 51.37v308.27a234.245 234.245 0 0 0-59.35-17.72h-0.02c-1.95-0.31-3.9-0.6-5.86-0.86-0.17-0.02-0.33-0.05-0.5-0.07-1.79-0.24-3.59-0.45-5.39-0.64-0.31-0.03-0.62-0.07-0.93-0.1-1.66-0.17-3.33-0.32-5-0.46-0.43-0.04-0.85-0.08-1.28-0.11-1.57-0.12-3.14-0.22-4.71-0.31-0.51-0.03-1.02-0.07-1.54-0.09-1.55-0.08-3.11-0.14-4.67-0.19l-1.55-0.06a239.147 239.147 0 0 0-29.9 1.09c-54.81 5.43-105.59 29.64-144.96 69.53-32.13 32.56-53.89 72.8-63.59 116.6-3.79 17.14-5.74 34.82-5.74 52.8a306.316 306.316 0 0 0 0.09 6.64c0.04 1.64 0.1 3.28 0.18 4.91l0.09 1.66c0.06 1.07 0.12 2.14 0.19 3.21 0.05 0.82 0.11 1.64 0.17 2.46 0.05 0.62 0.1 1.24 0.16 1.86 0.16 1.88 0.34 3.76 0.54 5.63 0.01 0.13 0.03 0.26 0.04 0.39 3.42 31.25 12.8 61.18 27.58 88.4H218.06c-28.7-0.02-52.06-23.06-52.06-51.38z m534 97.39c-76.01 0-139.64-55.03-154.65-128.09-0.06-0.31-0.13-0.61-0.19-0.92-0.18-0.91-0.35-1.82-0.52-2.74-0.09-0.52-0.19-1.03-0.28-1.55-0.14-0.79-0.26-1.59-0.39-2.39-0.1-0.65-0.2-1.29-0.29-1.94l-0.3-2.15c-0.1-0.73-0.19-1.47-0.27-2.21-0.08-0.66-0.15-1.32-0.22-1.98-0.08-0.8-0.16-1.61-0.23-2.41-0.06-0.61-0.11-1.23-0.16-1.84-0.07-0.87-0.12-1.74-0.18-2.61-0.04-0.56-0.08-1.12-0.1-1.69-0.05-0.97-0.09-1.95-0.12-2.93-0.02-0.47-0.04-0.93-0.05-1.4-0.04-1.45-0.06-2.9-0.06-4.35 0-88.87 70.88-161.18 158-161.18 1.32 0 2.64 0.02 3.95 0.05 0.41 0.01 0.81 0.03 1.22 0.04 0.91 0.03 1.82 0.06 2.73 0.11 0.45 0.02 0.89 0.05 1.34 0.08 0.87 0.05 1.74 0.1 2.61 0.17 0.43 0.03 0.85 0.07 1.28 0.11 0.89 0.08 1.79 0.15 2.67 0.24l1.13 0.12c0.95 0.1 1.9 0.21 2.85 0.33l0.89 0.12a156.077 156.077 0 0 1 7.18 1.13l0.16 0.03c73.82 13.56 130 79.55 130 158.67 0 88.87-70.88 161.18-158 161.18z" p-id="15984" fill="#1296db"></path><path d="M729.94 696.87v-55.39c0-21.79-17.91-39.46-40-39.46s-40 17.67-40 39.46v71.17c0 34.82 28.71 63.14 64 63.14H782c22.09 0 40-17.67 40-39.46s-17.91-39.46-40-39.46h-52.06zM579 479.68c22.08 0 39.99-17.65 40-39.44 0.01-21.79-17.89-39.47-39.98-39.48l-319-0.17H260c-22.08 0-39.99 17.65-40 39.44-0.01 21.79 17.89 39.47 39.98 39.48l319 0.17h0.02zM260 317.88h432c22.09 0 40-17.67 40-39.46s-17.91-39.46-40-39.46H260c-22.09 0-40 17.67-40 39.46s17.91 39.46 40 39.46z" p-id="15985" fill="#1296db"></path></svg>