<?xml version="1.0" standalone="no"?><!DOCTYPE svg PUBLIC "-//W3C//DTD SVG 1.1//EN" "http://www.w3.org/Graphics/SVG/1.1/DTD/svg11.dtd"><svg t="1778404829220" class="icon" viewBox="0 0 1024 1024" version="1.1" xmlns="http://www.w3.org/2000/svg" p-id="4000" xmlns:xlink="http://www.w3.org/1999/xlink" width="200" height="200"><path d="M218.7264 178.2784h540.4672c10.24 0 18.6368 8.2944 18.6368 18.6368v299.1104c0 15.9744 12.9024 28.8768 28.8768 28.8768S835.584 512 835.584 496.0256V166.912c0-25.7024-20.7872-46.4896-46.4896-46.4896H188.928C163.2256 120.4224 142.4384 141.312 142.4384 166.912v658.0224c0 25.7024 20.7872 46.4896 46.4896 46.4896h213.4016c15.9744 0 28.8768-12.9024 28.8768-28.8768s-12.9024-28.8768-28.8768-28.8768H218.7264c-10.24 0-18.6368-8.2944-18.6368-18.6368V196.8128c0.1024-10.24 8.3968-18.5344 18.6368-18.5344z" p-id="4001" fill="#1296db"></path><path d="M822.0672 595.5584l-218.112 218.0096c-7.2704 7.2704-19.0464 7.2704-26.3168 0l-88.6784-88.6784c-13.5168-13.5168-35.5328-13.5168-49.0496 0-13.5168 13.5168-13.5168 35.5328 0 49.0496l117.6576 117.4528c18.1248 18.1248 47.5136 18.1248 65.6384 0l247.7056-246.784c13.5168-13.5168 13.5168-35.5328 0-49.0496-13.4144-13.6192-35.328-13.6192-48.8448 0zM633.4464 438.1696H344.576c-15.9744 0-28.8768 12.9024-28.8768 28.8768s12.9024 28.8768 28.8768 28.8768h288.8704c15.9744 0 28.8768-12.9024 28.8768-28.8768s-12.9024-28.8768-28.8768-28.8768zM633.4464 322.6624H344.576c-15.9744 0-28.8768 12.9024-28.8768 28.8768s12.9024 28.8768 28.8768 28.8768h288.8704c15.9744 0 28.8768-12.9024 28.8768-28.8768s-12.9024-28.8768-28.8768-28.8768z" p-id="4002" fill="#1296db"></path></svg>