<?xml version="1.0" standalone="no"?><!DOCTYPE svg PUBLIC "-//W3C//DTD SVG 1.1//EN" "http://www.w3.org/Graphics/SVG/1.1/DTD/svg11.dtd"><svg t="1778682962599" class="icon" viewBox="0 0 1024 1024" version="1.1" xmlns="http://www.w3.org/2000/svg" p-id="6542" xmlns:xlink="http://www.w3.org/1999/xlink" width="200" height="200"><path d="M512 64a448 448 0 1 1 0 896A448 448 0 0 1 512 64z m255.232 301.376a38.4 38.4 0 0 0-49.6 4.032L490.048 596.992 362.56 469.504l-4.736-4.032a38.4 38.4 0 0 0-49.6 58.304l154.688 154.688 4.736 4.032a38.4 38.4 0 0 0 49.536-4.032l254.784-254.72 4.032-4.8a38.4 38.4 0 0 0-4.032-49.536z" fill="#1890FF" p-id="6543"></path></svg>