<?xml version="1.0" standalone="no"?><!DOCTYPE svg PUBLIC "-//W3C//DTD SVG 1.1//EN" "http://www.w3.org/Graphics/SVG/1.1/DTD/svg11.dtd"><svg t="1778683652983" class="icon" viewBox="0 0 1088 1024" version="1.1" xmlns="http://www.w3.org/2000/svg" p-id="9524" xmlns:xlink="http://www.w3.org/1999/xlink" width="212.5" height="200"><path d="M1049.440994 1024h-445.217392c-19.080745 0-31.801242-25.440994-31.801242-63.602484s12.720497-63.602484 31.801242-63.602485h445.217392c19.080745 0 31.801242 31.801242 31.801242 63.602485 0 38.161491-12.720497 63.602484-31.801242 63.602484m-1024 0c-6.360248 0-12.720497-6.360248-19.080746-6.360248-6.360248-6.360248-6.360248-12.720497-6.360248-19.080746l44.521739-203.52795c0-6.360248 6.360248-12.720497 19.080745-19.080745 6.360248 0 19.080745 0 25.440994 6.360248l159.006211 159.006211c6.360248 6.360248 6.360248 12.720497 6.360249 25.440994 0 6.360248-6.360248 12.720497-19.080745 19.080745l-209.888199 38.161491m362.534161-190.807453c-6.360248 0-12.720497 0-19.080745-6.360249l-171.726708-159.006211c-6.360248-6.360248-6.360248-12.720497-6.360249-19.080745s0-12.720497 6.360249-19.080746l667.826087-623.304348c6.360248-6.360248 12.720497-6.360248 19.080745-6.360248 6.360248 0 12.720497 0 19.080746 6.360248l171.726708 159.006212c6.360248 6.360248 6.360248 12.720497 6.360248 19.080745 0 6.360248 0 12.720497-6.360248 19.080745l-667.826087 623.304348c-6.360248 6.360248-12.720497 6.360248-19.080746 6.360249" fill="#1296db" p-id="9525"></path></svg>