<?xml version="1.0" standalone="no"?><!DOCTYPE svg PUBLIC "-//W3C//DTD SVG 1.1//EN" "http://www.w3.org/Graphics/SVG/1.1/DTD/svg11.dtd"><svg t="1778254120794" class="icon" viewBox="0 0 1024 1024" version="1.1" xmlns="http://www.w3.org/2000/svg" p-id="19154" xmlns:xlink="http://www.w3.org/1999/xlink" width="200" height="200"><path d="M688.010562 935.276733c-2.06996 28.351446-21.396582 52.71297-49.023042 61.779793l-85.928322 24.959513c-35.584305 8.575833-71.572602-12.629753-80.36143-47.359075a82.558388 82.558388 0 0 1-0.853984-3.839925c-10.303799-36.820281 9.962805-75.198531 46.677089-88.382274l85.928321-24.916513a62.931771 62.931771 0 0 1 63.230765 17.40766 328.740579 328.740579 0 0 0 155.346966-143.933189h-21.866573c-69.054651-3.690928-122.067616-61.140806-118.610683-128.53149V473.802746c-3.413933-67.368684 49.577032-124.797563 118.610683-128.48749h29.631422c4.244917 0 8.489834 0.233995 12.692752 0.724985C795.614461 167.44073 608.418117 60.541818 425.402691 107.260905c-119.80566 30.569403-213.371833 121.87462-244.71022 238.779336a109.437863 109.437863 0 0 1 12.671752-0.725985h29.652421c68.969653 3.754927 121.897619 61.161805 118.483686 128.48849v128.487491c3.433933 67.391684-49.557032 124.840562-118.611683 128.531489H193.236226c-68.948653-3.754927-121.87462-61.097807-118.504686-128.402492V473.802746c0-3.327935 0-6.65587 0.341994-9.940806a58.473858 58.473858 0 0 1-0.341994-6.101881C74.73154 204.539005 270.909709 0 512.034999 0c241.14729 0 437.325458 204.540005 437.325459 457.761059 0 2.02696-0.127998 4.07492-0.362993 6.101881 0 3.284936 0.362993 6.612871 0.362993 9.940806v128.48749a131.987422 131.987422 0 0 1-49.279038 104.297963C864.283119 807.790223 787.677616 890.34861 688.010562 935.147735v0.127998z" fill="#1296db" p-id="19155"></path></svg>