<?xml version="1.0" standalone="no"?><!DOCTYPE svg PUBLIC "-//W3C//DTD SVG 1.1//EN" "http://www.w3.org/Graphics/SVG/1.1/DTD/svg11.dtd"><svg t="1778405662167" class="icon" viewBox="0 0 1024 1024" version="1.1" xmlns="http://www.w3.org/2000/svg" p-id="22219" xmlns:xlink="http://www.w3.org/1999/xlink" width="200" height="200"><path d="M672.3584 680.704h-320c-17.664 0-32-15.3088-32-34.1504v-51.2h384v51.2c0 18.8416-14.336 34.1504-32 34.1504z" fill="#1296db" p-id="22220"></path><path d="M809.0624 936.704H215.6544c-36.352 0-65.9456-30.976-65.9456-68.9664V152.32c0-38.0416 29.5424-68.9664 65.9456-68.9664h395.6224c18.176 0 32.9728 15.2576 32.9728 34.0992a33.5872 33.5872 0 0 1-32.9728 34.1504H215.6544v716.1344l593.408 0.6656V361.2672c0-18.8416 14.7968-34.1504 32.9728-34.1504 18.2272 0 32.9728 15.3088 32.9728 34.1504v506.4704c0 37.9904-29.5424 68.9664-65.9456 68.9664z" fill="#1296db" p-id="22221"></path><path d="M483.2256 510.0032a35.8912 35.8912 0 0 1-25.2928-10.1376 31.2832 31.2832 0 0 1 1.28-46.2336l356.9664-318.6176a36.5056 36.5056 0 0 1 49.2544 1.1264 31.2832 31.2832 0 0 1-1.2288 46.2336L507.1872 500.992a35.9424 35.9424 0 0 1-23.9616 9.0112z" fill="#1296db" p-id="22222"></path></svg>