<?xml version="1.0" standalone="no"?><!DOCTYPE svg PUBLIC "-//W3C//DTD SVG 1.1//EN" "http://www.w3.org/Graphics/SVG/1.1/DTD/svg11.dtd"><svg t="1778254198077" class="icon" viewBox="0 0 1024 1024" version="1.1" xmlns="http://www.w3.org/2000/svg" p-id="22307" xmlns:xlink="http://www.w3.org/1999/xlink" width="200" height="200"><path d="M424.96 153.6h-307.2c-25.6 0-46.08 20.48-46.08 40.96v281.6c0 25.6 20.48 40.96 46.08 40.96h307.2c25.6 0 46.08-20.48 46.08-40.96V194.56c0-20.48-20.48-40.96-46.08-40.96z m0 0M901.12 588.8h-307.2c-25.6 0-46.08 20.48-46.08 40.96v281.6c0 25.6 20.48 40.96 46.08 40.96h307.2c25.6 0 46.08-20.48 46.08-40.96v-281.6c0-25.6-20.48-40.96-46.08-40.96z m0 0M967.68 261.12L716.8 138.24c-20.48-10.24-46.08-5.12-56.32 15.36l-133.12 230.4c-10.24 20.48-5.12 40.96 15.36 51.2l250.88 122.88c20.48 10.24 46.08 5.12 56.32-15.36l133.12-230.4c15.36-15.36 5.12-40.96-15.36-51.2z m0 0M424.96 588.8h-307.2c-25.6 0-46.08 20.48-46.08 40.96v281.6c0 25.6 20.48 40.96 46.08 40.96h307.2c25.6 0 46.08-20.48 46.08-40.96v-281.6c0-25.6-20.48-40.96-46.08-40.96z m0 0" fill="#1296db" p-id="22308"></path></svg>