<?xml version="1.0" standalone="no"?><!DOCTYPE svg PUBLIC "-//W3C//DTD SVG 1.1//EN" "http://www.w3.org/Graphics/SVG/1.1/DTD/svg11.dtd"><svg t="1778254220510" class="icon" viewBox="0 0 1097 1024" version="1.1" xmlns="http://www.w3.org/2000/svg" p-id="23336" xmlns:xlink="http://www.w3.org/1999/xlink" width="214.2578125" height="200"><path d="M0 109.714286A109.714286 109.714286 0 0 1 109.714286 0h877.714285A109.714286 109.714286 0 0 1 1097.142857 109.714286v598.674285a109.714286 109.714286 0 0 1-109.714286 109.714286h-146.285714c-24.283429 0-47.762286 7.314286-66.925714 20.553143l-163.108572 113.298286a109.714286 109.714286 0 0 1-125.074285 0l-163.108572-113.298286a117.613714 117.613714 0 0 0-66.925714-20.48h-146.285714a109.714286 109.714286 0 0 1-109.714286-109.714286V109.714286z m73.142857 0v598.674285a36.571429 36.571429 0 0 0 36.571429 36.571429h146.285714c39.058286 0 77.165714 11.702857 108.617143 33.645714l163.108571 113.225143a36.571429 36.571429 0 0 0 41.691429 0l163.108571-113.225143c31.451429-21.942857 69.558857-33.645714 108.617143-33.645714h146.285714a36.571429 36.571429 0 0 0 36.571429-36.571429V109.714286a36.571429 36.571429 0 0 0-36.571429-36.571429h-877.714285a36.571429 36.571429 0 0 0-36.571429 36.571429zM292.571429 365.714286h73.142857a36.571429 36.571429 0 0 1 0 73.142857H292.571429a36.571429 36.571429 0 0 1 0-73.142857z m438.857142 0h73.142858a36.571429 36.571429 0 0 1 0 73.142857h-73.142858a36.571429 36.571429 0 0 1 0-73.142857z" fill="#1296db" p-id="23337"></path></svg>