<?xml version="1.0" standalone="no"?><!DOCTYPE svg PUBLIC "-//W3C//DTD SVG 1.1//EN" "http://www.w3.org/Graphics/SVG/1.1/DTD/svg11.dtd"><svg t="1778254163400" class="icon" viewBox="0 0 1024 1024" version="1.1" xmlns="http://www.w3.org/2000/svg" p-id="21253" xmlns:xlink="http://www.w3.org/1999/xlink" width="200" height="200"><path d="M263.314286 219.428571h429.104762v97.52381H263.314286zM263.314286 414.47619h433.980952v97.52381H263.314286zM263.314286 604.647619H438.857143v97.52381H263.314286z" p-id="21254" fill="#1296db"></path><path d="M180.419048 126.780952h594.895238v316.952381h97.523809V29.257143H82.895238v936.228571h341.333333v-97.523809h-243.809523z" p-id="21255" fill="#1296db"></path><path d="M882.590476 755.809524l58.514286-78.019048-78.019048-53.638095 48.761905-63.390476-82.895238-58.514286-136.533333 190.171429c-24.380952-4.87619-48.761905-9.752381-73.142858-4.876191-39.009524 4.87619-78.019048 29.257143-102.4 63.390476-48.761905 68.266667-34.133333 165.790476 39.009524 219.428572 24.380952 19.504762 58.514286 29.257143 92.647619 29.257143h24.380953c39.009524-4.87619 78.019048-29.257143 102.4-63.390477 39.009524-58.514286 39.009524-131.657143 0-180.419047l34.133333-43.885714 73.142857 43.885714z m-185.295238 117.028571c-9.752381 14.628571-24.380952 19.504762-39.009524 24.380953-14.628571 4.87619-29.257143 0-43.885714-9.752381-24.380952-19.504762-34.133333-53.638095-14.628571-82.895238 9.752381-14.628571 24.380952-19.504762 39.009523-24.380953h9.752381c9.752381 0 24.380952 4.87619 34.133334 9.752381 29.257143 19.504762 34.133333 58.514286 14.628571 82.895238z" p-id="21256" fill="#1296db"></path></svg>