<?xml version="1.0" standalone="no"?><!DOCTYPE svg PUBLIC "-//W3C//DTD SVG 1.1//EN" "http://www.w3.org/Graphics/SVG/1.1/DTD/svg11.dtd"><svg t="1778253720433" class="icon" viewBox="0 0 1024 1024" version="1.1" xmlns="http://www.w3.org/2000/svg" p-id="5639" xmlns:xlink="http://www.w3.org/1999/xlink" width="200" height="200"><path d="M1024 499.2c0-6.4 0-19.2-6.4-25.6L537.6 12.8c-12.8-12.8-38.4-12.8-51.2 0L12.8 473.6c-12.8 6.4-12.8 12.8-12.8 25.6v435.2c0 51.2 44.8 89.6 96 89.6h832c51.2 0 96-38.4 96-89.6V499.2z m-275.2 288c-6.4 0-6.4 6.4-12.8 6.4h-448c-19.2 0-32-12.8-32-32 0-12.8 6.4-25.6 19.2-32 6.4 0 6.4-6.4 12.8-6.4h448c19.2 0 32 12.8 32 32 6.4 12.8-6.4 25.6-19.2 32z" fill="#357FC2" p-id="5640"></path></svg>